<svg xmlns="http://www.w3.org/2000/svg" viewBox="0 0 139.49 139.49"><defs><style>.a{fill:#1b2387;}.b{fill:#e4e5f1;}.c{fill:#fe9a2e;}</style></defs><title>AO_ORANGE_OBS_VOILE_Plan de travail 1004</title><circle class="a" cx="69.75" cy="69.75" r="69.75"/><path class="b" d="M38.86,93.92V32.15h2.69V96.6H38.11l3.44,10.74H38.7l-2.52-7.9v7.9H33.49V32.15h2.69V93.92Z"/><path class="b" d="M63,32.15V96.6H59.59L63,107.34H60.18l-2.52-7.9v7.9H55V32.15Zm-2.69,2.69H57.66V93.92h2.69Z"/><path class="b" d="M73.77,32.15v2.69H71.09v72.51H68.4V34.83H65.72V32.15Z"/><path class="b" d="M79.14,93.92h5.37V96.6H79.14v8.06h5.37v2.69H76.46V32.15h8.06v2.69H79.14Z"/><path class="b" d="M89.89,93.92h5.37V96.6H89.89v10.74H87.2V32.15h8.06v2.69H89.89Z"/><path class="b" d="M103.31,96.6h-2.69v10.74H97.94V32.15H106v75.2h-2.69Zm-2.69-2.69h2.69V34.83h-2.69Z"/><path class="c" d="M46.81,31a.24.24,0,0,0,.34-.15,3.57,3.57,0,0,0,0-2.19,3.57,3.57,0,0,0-1.62-1.48.24.24,0,0,0-.34.15,3.57,3.57,0,0,0,0,2.19A3.57,3.57,0,0,0,46.81,31Z"/><path class="c" d="M51.36,35.15a3.09,3.09,0,0,0-2.4-3,3.43,3.43,0,0,1,1.77-2.89.5.5,0,0,0-.38-.93A4.42,4.42,0,0,0,48,32.1a3.08,3.08,0,0,0-2.77,3l-.92,68.76a4,4,0,1,0,8,0ZM48.27,105.3a1.41,1.41,0,0,1-1.41-1.39l.92-68.76a.49.49,0,1,1,1,0l.92,68.72A1.41,1.41,0,0,1,48.27,105.3Z"/></svg>